# xmcd
#
# Track frame offsets:
#	150
#	21517
#	40033
#	71753
#	99482
#	147505
#	180976
#	200155
#	250485
#	274208
#
# Disc length: 4103 seconds
#
# Revision: 0
# Processed by: cddbd v1.5.1PL2 Copyright (c) Steve Scherf et al.
# Submitted via: dBpowerAMP V4.0
#
DISCID=9910050a
DTITLE=Peter Rowan - Crucial Country
DYEAR=2006
DGENRE=Bluegrass
TTITLE0=Deal With The Devil
TTITLE1=Howlin' At The Moon
TTITLE2=The Walls Of Time
TTITLE3=Tumbleweed
TTITLE4=Panama Red
TTITLE5=Rainmaker
TTITLE6=Wings Of Horses
TTITLE7=No Woman No Cry
TTITLE8=Land Of The Navajo
TTITLE9=Ancient Tones
EXTD=
EXTT0=
EXTT1=
EXTT2=
EXTT3=
EXTT4=
EXTT5=
EXTT6=
EXTT7=
EXTT8=
EXTT9=
PLAYORDER=
